<?xml version="1.0" standalone="no"?>
<!DOCTYPE svg PUBLIC "-//W3C//DTD SVG 20010904//EN"
 "http://www.w3.org/TR/2001/REC-SVG-20010904/DTD/svg10.dtd">
<svg version="1.0" xmlns="http://www.w3.org/2000/svg"
 width="225.000000pt" height="225.000000pt" viewBox="0 0 225.000000 225.000000"
 preserveAspectRatio="xMidYMid meet">

<g transform="translate(0.000000,225.000000) scale(0.100000,-0.100000)"
fill="#000000" stroke="none">
<path d="M1009 2130 c-294 -35 -564 -202 -730 -453 -219 -334 -219 -770 0
-1104 208 -315 575 -492 941 -453 174 18 319 69 456 159 316 209 493 576 454
941 -18 174 -69 319 -159 457 -170 258 -438 420 -746 453 -100 11 -121 11
-216 0z m251 -65 c366 -56 664 -310 773 -660 156 -501 -124 -1029 -628 -1188
-438 -138 -922 68 -1128 478 -82 165 -118 354 -98 525 38 340 238 621 542 764
182 86 347 111 539 81z"/>
<path d="M772 1478 c-7 -7 -12 -17 -12 -23 0 -5 72 -82 160 -170 l160 -160
-161 -161 c-114 -114 -160 -167 -157 -180 9 -47 40 -26 202 135 l161 161 160
-160 c161 -162 196 -185 203 -135 2 14 -43 65 -158 180 l-160 160 161 161
c117 117 160 167 156 178 -17 44 -38 29 -201 -133 l-161 -161 -160 160 c-88
88 -165 160 -170 160 -6 0 -16 -5 -23 -12z"/>
</g>
</svg>
