<?xml version="1.0" standalone="no"?>
<!DOCTYPE svg PUBLIC "-//W3C//DTD SVG 20010904//EN"
 "http://www.w3.org/TR/2001/REC-SVG-20010904/DTD/svg10.dtd">
<svg version="1.0" xmlns="http://www.w3.org/2000/svg"
 width="225.000000pt" height="225.000000pt" viewBox="0 0 225.000000 225.000000"
 preserveAspectRatio="xMidYMid meet">
<metadata>
Created by potrace 1.16, written by Peter Selinger 2001-2019
</metadata>
<g transform="translate(0.000000,225.000000) scale(0.100000,-0.100000)"
fill="#000000" stroke="none">
<path d="M276 1894 c-98 -30 -178 -102 -225 -203 l-26 -56 -3 -470 c-4 -500 0
-550 43 -635 30 -59 96 -122 165 -157 l55 -28 840 0 840 0 55 28 c102 52 171
139 196 246 18 74 20 923 3 1003 -21 98 -84 188 -170 240 -77 48 -82 48 -928
47 -677 0 -803 -3 -845 -15z m1647 -145 c20 -5 37 -14 37 -19 0 -15 -700 -664
-738 -685 -50 -26 -144 -26 -194 0 -39 21 -738 670 -738 686 0 4 15 13 33 18
46 13 1551 14 1600 0z m-1430 -427 c114 -107 207 -196 207 -197 0 -2 -328
-310 -467 -439 l-53 -49 0 488 0 488 53 -49 c28 -26 145 -136 260 -242z m1575
-436 l-3 -245 -258 241 -258 241 38 38 c21 21 137 130 258 243 l220 205 3
-239 c1 -131 1 -349 0 -484z m-1101 19 c75 -36 177 -44 258 -20 70 20 114 45
171 97 l40 37 262 -245 c144 -135 262 -249 262 -254 0 -26 -103 -30 -835 -30
-730 0 -835 4 -835 29 0 5 118 119 262 254 l261 246 49 -44 c27 -24 74 -56
105 -70z"/>
</g>
</svg>
