<?xml version="1.0" standalone="no"?>
<!DOCTYPE svg PUBLIC "-//W3C//DTD SVG 20010904//EN"
 "http://www.w3.org/TR/2001/REC-SVG-20010904/DTD/svg10.dtd">
<svg version="1.0" xmlns="http://www.w3.org/2000/svg"
 width="225.000000pt" height="225.000000pt" viewBox="0 0 225.000000 225.000000"
 preserveAspectRatio="xMidYMid meet">
<metadata>
Created by potrace 1.16, written by Peter Selinger 2001-2019
</metadata>
<g transform="translate(0.000000,225.000000) scale(0.100000,-0.100000)"
fill="#000000" stroke="none">
<path d="M1292 2133 c-39 -34 -482 -556 -482 -569 0 -7 7 -20 16 -28 13 -13
42 -16 160 -16 l144 0 0 -254 0 -255 26 -20 c24 -19 40 -21 169 -21 205 0 189
-25 193 294 l3 256 143 0 c153 0 171 6 164 49 -2 11 -93 125 -203 253 -307
358 -293 345 -333 311z"/>
<path d="M63 2058 c-30 -14 -46 -58 -34 -89 16 -45 35 -52 141 -54 56 -1 104
-6 109 -11 7 -7 166 -512 346 -1095 4 -12 -7 -21 -40 -33 -174 -67 -219 -303
-83 -433 34 -33 110 -72 140 -73 9 0 28 -20 42 -44 68 -116 199 -156 316 -96
35 18 60 43 103 104 l18 26 160 0 c154 0 161 -1 179 -22 102 -123 116 -132
215 -132 92 0 146 28 195 102 l34 52 98 0 c92 0 101 2 123 25 32 31 32 69 0
100 -22 23 -32 25 -119 25 -64 0 -99 4 -106 13 -6 6 -24 31 -41 55 -20 29 -47
51 -82 68 -115 53 -232 15 -303 -98 l-24 -38 -165 0 -164 0 -30 44 c-70 102
-161 137 -274 105 -43 -12 -111 -68 -132 -110 -18 -33 -41 -30 -81 13 -59 60
-29 155 55 178 22 6 272 10 644 10 684 0 668 -2 686 67 86 325 239 966 234
980 -12 34 -36 53 -68 53 -64 0 -62 5 -185 -481 l-115 -454 -535 0 -535 0
-190 608 c-154 494 -194 612 -214 628 -20 17 -40 19 -160 18 -75 0 -146 -5
-158 -11z m1678 -1664 c77 -82 -46 -196 -125 -118 -44 45 -32 114 26 138 39
17 71 10 99 -20z m-787 -5 c34 -40 33 -74 -3 -110 -41 -41 -90 -40 -125 2 -33
39 -33 78 -1 113 36 39 94 37 129 -5z"/>
</g>
</svg>
