<?xml version="1.0" standalone="no"?>
<!DOCTYPE svg PUBLIC "-//W3C//DTD SVG 20010904//EN"
 "http://www.w3.org/TR/2001/REC-SVG-20010904/DTD/svg10.dtd">
<svg version="1.0" xmlns="http://www.w3.org/2000/svg"
 width="232.000000pt" height="218.000000pt" viewBox="0 0 232.000000 218.000000"
 preserveAspectRatio="xMidYMid meet">

<g transform="translate(0.000000,218.000000) scale(0.100000,-0.100000)"
fill="#000000" stroke="none">
<path d="M1214 2039 c-15 -16 -20 -41 -24 -112 -4 -75 -8 -92 -22 -95 -11 -2
-18 7 -23 30 -11 49 -32 68 -76 68 -48 0 -69 -27 -69 -91 0 -39 -4 -49 -25
-63 -37 -24 -58 -71 -50 -114 15 -85 34 -92 268 -92 169 0 196 2 201 16 9 22
-1 34 -30 34 l-24 0 0 194 c0 180 -1 195 -21 220 -26 33 -77 36 -105 5z m88
-16 c12 -11 18 -29 17 -57 l-1 -41 -9 40 c-13 55 -42 71 -73 39 -12 -12 -16
-37 -16 -104 0 -84 -1 -90 -25 -106 -23 -15 -27 -15 -50 0 -13 9 -28 30 -33
48 -18 70 -73 62 -83 -13 l-6 -44 -1 51 c-2 56 10 74 49 74 32 0 49 -19 58
-63 5 -23 13 -33 29 -35 43 -6 52 13 52 109 0 66 4 91 16 103 20 21 53 20 76
-1z m-17 -213 c0 -182 0 -185 -22 -188 -17 -3 -25 6 -41 40 -23 53 -79 103
-132 119 -39 12 -41 14 -38 48 4 50 33 55 42 8 8 -44 38 -70 78 -69 54 1 68
29 68 131 0 91 4 104 30 99 13 -3 15 -29 15 -188z m32 -117 c-1 -43 -3 -10 -3
72 0 83 2 118 3 78 2 -40 2 -107 0 -150z m-200 56 c43 -21 97 -84 87 -101 -3
-4 -28 -8 -55 -8 -38 0 -51 4 -55 18 -22 67 -65 93 -115 68 -36 -18 -38 -4 -3
23 34 27 86 27 141 0z m-79 -55 c30 -21 29 -59 -3 -80 -23 -15 -27 -15 -50 0
-32 21 -33 59 -3 80 12 9 25 16 28 16 3 0 16 -7 28 -16z m182 -90 c0 -11 -17
-14 -75 -14 -72 0 -86 5 -66 26 16 15 141 5 141 -12z m128 -11 c-15 -2 -42 -2
-60 0 -18 2 -6 4 27 4 33 0 48 -2 33 -4z"/>
<path d="M1095 1720 c-8 -14 3 -30 21 -30 8 0 14 9 14 20 0 21 -24 28 -35 10z"/>
<path d="M1762 2044 c-22 -15 -22 -19 -22 -225 0 -268 -15 -249 190 -249 147
0 152 1 175 25 25 24 25 25 25 225 0 258 14 240 -193 240 -122 0 -157 -3 -175
-16z m326 -26 c7 -7 12 -22 12 -35 0 -23 -1 -23 -130 -23 -80 0 -130 -4 -130
-10 0 -6 50 -10 130 -10 l130 0 0 -160 c0 -147 -1 -160 -19 -170 -28 -15 -284
-13 -299 2 -8 8 -12 60 -12 170 l0 158 26 0 c14 0 23 4 19 10 -3 6 -15 10 -26
10 -13 0 -19 7 -19 23 0 43 16 47 165 47 96 0 145 -4 153 -12z"/>
<path d="M1812 1993 c2 -10 10 -18 18 -18 8 0 16 8 18 18 2 12 -3 17 -18 17
-15 0 -20 -5 -18 -17z"/>
<path d="M1877 2004 c-9 -9 4 -34 18 -34 14 0 27 25 18 34 -4 3 -12 6 -18 6
-6 0 -14 -3 -18 -6z"/>
<path d="M1942 1993 c2 -10 10 -18 18 -18 8 0 16 8 18 18 2 12 -3 17 -18 17
-15 0 -20 -5 -18 -17z"/>
<path d="M2012 1993 c4 -21 33 -25 33 -3 0 8 -8 16 -18 18 -14 3 -18 -1 -15
-15z"/>
<path d="M1803 1898 c3 -10 38 -13 132 -13 94 0 129 3 133 13 3 9 -28 12 -133
12 -105 0 -136 -3 -132 -12z"/>
<path d="M1804 1847 c-2 -7 -3 -58 -2 -113 l3 -99 119 -3 c78 -2 123 1 132 9
18 15 20 189 2 207 -18 18 -247 17 -254 -1z m246 -102 l0 -95 -115 0 -115 0 0
95 0 95 115 0 115 0 0 -95z"/>
<path d="M1883 1784 c-3 -10 -2 -29 4 -45 8 -19 7 -31 0 -38 -6 -6 -7 -14 -3
-18 4 -5 14 0 21 10 10 14 11 26 3 48 -7 22 -7 33 2 44 10 12 9 15 -4 15 -9 0
-19 -7 -23 -16z"/>
<path d="M1954 1775 c-3 -14 -1 -32 6 -39 8 -11 9 -20 0 -35 -12 -24 2 -28 20
-6 10 12 10 21 0 45 -10 24 -10 33 0 45 10 12 10 15 -4 15 -8 0 -18 -11 -22
-25z"/>
<path d="M162 1967 c-20 -21 -22 -34 -22 -151 0 -121 1 -128 25 -151 24 -25
25 -25 218 -25 259 0 247 -8 247 176 0 186 16 174 -243 174 -200 0 -204 0
-225 -23z m426 -19 c8 -8 12 -53 12 -135 0 -111 -2 -123 -19 -133 -12 -6 -95
-10 -200 -10 -150 0 -182 3 -195 16 -13 12 -16 39 -16 133 0 78 4 121 12 129
8 8 68 12 203 12 135 0 195 -4 203 -12z"/>
<path d="M207 1922 c-13 -14 -17 -39 -17 -110 0 -121 1 -122 171 -122 158 0
159 1 159 121 0 129 -1 129 -164 129 -116 0 -135 -2 -149 -18z m281 -14 c7 -7
12 -43 12 -93 0 -50 -5 -86 -12 -93 -8 -8 -52 -12 -133 -12 -81 0 -125 4 -133
12 -16 16 -16 170 0 186 8 8 52 12 133 12 81 0 125 -4 133 -12z"/>
<path d="M312 1867 c-11 -13 -11 -117 0 -117 16 0 25 35 16 62 -7 20 -7 33 1
42 7 9 8 17 3 20 -6 3 -14 0 -20 -7z"/>
<path d="M379 1859 c-8 -16 -8 -28 0 -46 9 -19 9 -29 0 -39 -17 -21 -1 -31 18
-12 14 14 14 21 3 47 -9 24 -10 34 -1 45 8 9 8 16 2 20 -6 4 -15 -3 -22 -15z"/>
<path d="M545 1891 c-8 -15 3 -31 21 -31 9 0 14 7 12 17 -4 20 -24 28 -33 14z"/>
<path d="M545 1820 c-8 -14 3 -30 21 -30 8 0 14 9 14 20 0 21 -24 28 -35 10z"/>
<path d="M553 1763 c-18 -6 -16 -30 2 -37 9 -3 18 1 22 10 7 18 -7 33 -24 27z"/>
<path d="M236 1319 l-26 -20 0 -209 0 -209 26 -20 c24 -19 40 -21 145 -21 127
0 161 9 178 47 7 15 11 93 11 203 0 110 -4 188 -11 203 -17 38 -51 47 -178 47
-105 0 -121 -2 -145 -21z m290 -33 c8 -11 14 -43 14 -73 l0 -53 -150 0 -150 0
0 65 c0 83 5 85 158 82 99 -2 115 -4 128 -21z m12 -263 c4 -151 1 -153 -142
-153 -58 0 -116 4 -130 10 l-26 10 0 125 0 126 148 -3 147 -3 3 -112z"/>
<path d="M277 1284 c-4 -4 -7 -29 -7 -56 0 -63 24 -61 28 2 3 41 -7 68 -21 54z"/>
<path d="M500 1264 c0 -8 5 -12 10 -9 6 3 10 10 10 16 0 5 -4 9 -10 9 -5 0
-10 -7 -10 -16z"/>
<path d="M500 1200 c0 -16 5 -30 10 -30 6 0 10 14 10 30 0 17 -4 30 -10 30 -5
0 -10 -13 -10 -30z"/>
<path d="M270 1035 c0 -65 3 -86 13 -82 17 5 17 159 0 165 -10 3 -13 -18 -13
-83z"/>
<path d="M500 1010 c0 -60 4 -100 10 -100 6 0 10 40 10 100 0 60 -4 100 -10
100 -6 0 -10 -40 -10 -100z"/>
<path d="M1112 1330 c-44 -10 -94 -46 -123 -88 -33 -49 -39 -144 -10 -199 24
-49 68 -87 116 -103 46 -15 47 -40 0 -40 -30 0 -35 -3 -35 -24 0 -13 7 -27 16
-30 24 -9 157 -7 172 3 25 16 9 46 -26 49 -43 4 -41 27 3 42 138 46 182 231
79 333 -52 52 -125 74 -192 57z m91 -31 c46 -12 100 -58 117 -99 18 -44 8
-130 -19 -169 -66 -93 -216 -92 -282 1 -30 41 -38 132 -16 174 21 41 59 73
104 89 47 17 49 17 96 4z m-33 -384 c0 -8 -4 -15 -10 -15 -5 0 -10 7 -10 15 0
8 5 15 10 15 6 0 10 -7 10 -15z m70 -45 c0 -6 -33 -10 -80 -10 -47 0 -80 4
-80 10 0 6 33 10 80 10 47 0 80 -4 80 -10z"/>
<path d="M1062 1253 c-19 -7 -42 -58 -42 -91 0 -36 31 -65 69 -65 l30 0 -29
-27 c-21 -20 -27 -33 -23 -49 11 -43 93 -55 137 -20 31 24 35 72 9 103 -18 20
-18 20 10 2 68 -42 117 6 81 80 -36 73 -107 84 -141 21 l-18 -32 -3 30 c-6 49
-35 66 -80 48z m60 -51 c5 -57 -1 -80 -23 -87 -53 -17 -79 66 -35 110 32 32
53 23 58 -23z m147 7 c24 -26 37 -77 23 -91 -16 -16 -53 -2 -90 31 -27 25 -31
34 -23 50 20 36 61 40 90 10z m-92 -65 c8 -21 -13 -42 -28 -27 -13 13 -5 43
11 43 6 0 13 -7 17 -16z m21 -56 c17 -17 15 -54 -4 -72 -19 -20 -74 -21 -99
-2 -19 14 -19 15 -2 34 16 18 73 51 88 52 3 0 10 -5 17 -12z"/>
<path d="M1968 1320 c-11 -18 -24 -20 -109 -20 -128 0 -144 -11 -144 -100 0
-54 3 -65 26 -84 14 -12 29 -35 33 -50 9 -36 48 -33 56 4 3 14 16 40 29 58 22
28 30 32 73 32 l48 0 0 -69 0 -69 -126 -4 c-120 -3 -127 -4 -146 -28 -16 -19
-19 -35 -15 -68 8 -75 12 -77 230 -80 184 -3 194 -2 220 18 l27 21 0 190 c0
176 -1 190 -20 209 -13 13 -33 20 -58 20 -25 0 -43 7 -55 20 -9 11 -26 20 -37
20 -11 0 -25 -9 -32 -20z m57 -10 c4 -6 -5 -10 -20 -10 -15 0 -24 4 -20 10 3
6 12 10 20 10 8 0 17 -4 20 -10z m103 -52 c8 -8 12 -65 12 -190 l0 -178 -26
-10 c-14 -6 -99 -10 -190 -10 -151 0 -166 2 -184 20 -11 11 -20 29 -20 40 0
11 9 29 20 40 18 18 33 20 145 20 l125 0 0 100 0 100 -78 0 c-77 0 -78 0 -89
-31 -11 -27 -15 -30 -50 -27 l-38 3 -3 53 c-5 82 -6 82 192 82 120 0 176 -4
184 -12z m-318 -183 c0 -8 -4 -15 -10 -15 -5 0 -10 7 -10 15 0 8 5 15 10 15 6
0 10 -7 10 -15z"/>
<path d="M2065 1210 c-8 -14 3 -30 21 -30 8 0 14 9 14 20 0 21 -24 28 -35 10z"/>
<path d="M2062 1123 c2 -10 10 -18 18 -18 8 0 16 8 18 18 2 12 -3 17 -18 17
-15 0 -20 -5 -18 -17z"/>
<path d="M1755 960 c-3 -5 3 -10 14 -10 12 0 21 5 21 10 0 6 -6 10 -14 10 -8
0 -18 -4 -21 -10z"/>
<path d="M1810 960 c0 -6 58 -10 155 -10 97 0 155 4 155 10 0 6 -58 10 -155
10 -97 0 -155 -4 -155 -10z"/>
<path d="M215 585 c-25 -24 -25 -25 -25 -225 0 -259 -15 -240 198 -240 141 0
161 2 175 18 15 16 17 47 17 225 0 266 14 247 -190 247 -147 0 -152 -1 -175
-25z m323 -17 c7 -7 12 -25 12 -40 l0 -29 -131 2 c-71 0 -133 -2 -136 -5 -4
-3 55 -6 130 -6 l137 0 0 -158 c0 -110 -4 -162 -12 -170 -18 -18 -292 -17
-307 2 -17 20 -11 321 7 321 6 0 12 5 12 10 0 6 -6 10 -12 10 -21 0 -22 47 -2
62 24 18 285 18 302 1z"/>
<path d="M475 551 c-8 -15 3 -31 21 -31 9 0 14 7 12 17 -4 20 -24 28 -33 14z"/>
<path d="M353 448 c-48 -13 -83 -61 -83 -115 0 -38 5 -50 34 -79 28 -28 41
-34 78 -34 112 0 165 122 87 199 -31 32 -69 41 -116 29z m96 -52 c33 -35 31
-93 -4 -123 -58 -50 -145 -13 -145 62 0 77 97 116 149 61z"/>
<path d="M370 400 c0 -5 9 -10 21 -10 11 0 17 5 14 10 -3 6 -13 10 -21 10 -8
0 -14 -4 -14 -10z"/>
<path d="M331 372 c-13 -25 -14 -52 -2 -52 9 0 24 60 17 67 -2 3 -9 -4 -15
-15z"/>
<path d="M1873 565 c-32 -34 -50 -45 -73 -45 -23 0 -35 -7 -50 -32 -39 -65
-65 -254 -35 -261 5 -1 15 38 22 86 15 102 44 177 69 177 11 0 14 -5 9 -17
-18 -49 -45 -188 -51 -265 l-7 -88 198 0 198 0 -7 78 c-4 42 -12 104 -18 137
-10 57 -9 64 16 112 14 29 26 55 26 58 0 3 -22 5 -49 5 -40 0 -51 4 -56 19
-11 37 -73 81 -112 81 -30 0 -44 -8 -80 -45z m107 5 c11 0 50 -41 50 -52 0 -4
-34 -8 -75 -8 -41 0 -75 3 -75 6 0 30 50 68 78 58 8 -2 18 -4 22 -4z m79 -107
c20 -52 41 -149 49 -231 l8 -82 -163 0 -162 0 5 53 c8 81 33 205 51 248 l15
39 93 0 c92 0 93 0 104 -27z m69 2 c-13 -29 -23 -32 -32 -9 -10 27 -7 34 19
34 23 0 24 -2 13 -25z"/>
<path d="M1877 463 c-4 -3 -7 -13 -7 -21 0 -12 3 -12 15 -2 8 7 15 16 15 21 0
11 -14 12 -23 2z"/>
<path d="M1841 363 c-16 -55 -26 -193 -14 -193 5 0 14 44 20 98 6 53 14 105
18 115 4 10 3 17 -3 17 -6 0 -16 -17 -21 -37z"/>
<path d="M1115 573 c-12 -12 -16 -27 -12 -54 4 -34 1 -41 -47 -88 -28 -28 -59
-51 -68 -51 -24 0 -39 -31 -27 -53 6 -9 17 -17 25 -17 15 0 124 -96 124 -109
0 -3 -14 -14 -30 -23 -52 -30 -37 -38 72 -38 l102 0 -20 21 c-12 11 -37 26
-57 33 -53 18 -152 116 -152 150 0 32 99 137 114 121 5 -6 16 -35 26 -65 29
-91 29 -91 122 2 46 45 83 86 83 89 0 4 -30 17 -67 29 -38 13 -79 33 -94 46
-29 28 -71 31 -94 7z m69 -31 c15 -18 15 -20 -4 -37 -16 -14 -22 -15 -35 -5
-8 7 -15 20 -15 30 0 34 28 40 54 12z m126 -64 c0 -5 -14 -7 -32 -3 -31 6 -32
5 -14 -10 19 -15 19 -16 -14 -50 -19 -19 -37 -35 -40 -35 -4 0 -12 17 -18 37
-11 34 -9 40 14 64 23 24 29 26 65 17 21 -6 39 -15 39 -20z m-305 -129 c10
-15 -1 -23 -20 -15 -9 3 -13 10 -10 16 8 13 22 13 30 -1z m181 -184 c17 -13
14 -14 -41 -14 -55 0 -58 1 -41 14 11 8 29 15 41 15 12 0 30 -7 41 -15z"/>
</g>
</svg>
