<?xml version="1.0" standalone="no"?>
<!DOCTYPE svg PUBLIC "-//W3C//DTD SVG 20010904//EN"
 "http://www.w3.org/TR/2001/REC-SVG-20010904/DTD/svg10.dtd">
<svg version="1.0" xmlns="http://www.w3.org/2000/svg"
 width="225.000000pt" height="225.000000pt" viewBox="0 0 225.000000 225.000000"
 preserveAspectRatio="xMidYMid meet">

<g transform="translate(0.000000,225.000000) scale(0.100000,-0.100000)"
fill="#000000" stroke="none">
<path d="M715 1774 c-226 -124 -444 -244 -486 -266 -43 -22 -86 -52 -96 -67
-58 -79 -57 -200 4 -263 l27 -28 -22 -23 c-68 -72 -68 -211 0 -284 l21 -22
-26 -30 c-77 -92 -53 -258 45 -304 30 -14 1025 -237 1059 -237 8 0 217 114
464 253 340 192 451 259 453 274 2 12 -4 23 -13 27 -11 4 -169 -79 -463 -245
l-446 -251 -505 111 c-278 62 -515 118 -528 126 -77 51 -65 209 18 238 17 7
161 -21 524 -102 l500 -110 438 246 c241 135 448 254 460 263 23 19 18 50 -10
50 -10 0 -213 -110 -452 -245 -239 -135 -442 -245 -452 -245 -38 0 -986 211
-1016 226 -87 44 -81 196 8 245 11 5 101 -10 265 -47 137 -30 254 -52 261 -50
14 6 18 42 5 50 -4 2 -122 30 -262 60 -140 31 -265 60 -278 66 -80 35 -80 204
0 241 18 8 130 -13 513 -96 270 -58 500 -105 512 -105 27 0 913 498 920 517 3
8 -1 20 -8 27 -13 12 -975 227 -1009 226 -8 0 -199 -102 -425 -226z m768 -66
l59 -13 -97 -55 -97 -56 -164 36 c-89 19 -160 38 -156 42 4 4 47 29 96 56 l88
49 107 -23 c58 -12 132 -29 164 -36z"/>
<path d="M1715 1229 c-225 -127 -426 -239 -445 -249 -35 -18 -38 -18 -145 5
-79 17 -113 21 -122 13 -34 -28 -6 -45 123 -74 l121 -27 454 256 c394 222 454
259 454 279 0 12 -7 24 -15 26 -8 1 -199 -102 -425 -229z"/>
</g>
</svg>
