<?xml version="1.0" standalone="no"?>
<!DOCTYPE svg PUBLIC "-//W3C//DTD SVG 20010904//EN"
 "http://www.w3.org/TR/2001/REC-SVG-20010904/DTD/svg10.dtd">
<svg version="1.0" xmlns="http://www.w3.org/2000/svg"
 width="225.000000pt" height="225.000000pt" viewBox="0 0 225.000000 225.000000"
 preserveAspectRatio="xMidYMid meet">

<g transform="translate(0.000000,225.000000) scale(0.100000,-0.100000)"
fill="#000000" stroke="none">
<path d="M1095 2180 c-11 -4 -257 -246 -546 -537 -556 -558 -559 -561 -545
-636 17 -90 84 -136 199 -137 l67 0 0 -405 0 -405 855 0 855 0 0 405 0 405 68
0 c113 1 185 50 199 135 13 79 7 86 -554 647 -339 339 -537 529 -553 532 -14
3 -34 1 -45 -4z m830 -1128 l-115 -3 0 -404 0 -405 -195 0 -195 0 0 295 c0
194 -4 302 -11 318 -22 48 -45 52 -284 52 -239 0 -262 -4 -284 -52 -7 -16 -11
-124 -11 -318 l0 -295 -195 0 -195 0 0 405 0 405 -117 0 -118 0 460 460 460
460 458 -457 457 -458 -115 -3z m-665 -557 l0 -256 -137 3 -138 3 -3 240 c-1
132 0 245 2 252 4 10 41 13 141 13 l135 0 0 -255z"/>
</g>
</svg>
