<?xml version="1.0" standalone="no"?>
<!DOCTYPE svg PUBLIC "-//W3C//DTD SVG 20010904//EN"
 "http://www.w3.org/TR/2001/REC-SVG-20010904/DTD/svg10.dtd">
<svg version="1.0" xmlns="http://www.w3.org/2000/svg"
 width="238.000000pt" height="212.000000pt" viewBox="0 0 238.000000 212.000000"
 preserveAspectRatio="xMidYMid meet">

<g transform="translate(0.000000,212.000000) scale(0.100000,-0.100000)"
fill="#000000" stroke="none">
<path d="M763 1619 c-50 -15 -73 -52 -73 -120 l0 -59 45 0 45 0 0 45 0 45 535
0 535 0 0 -335 0 -335 -90 0 -90 0 0 -40 0 -40 135 0 135 0 0 389 c0 376 -1
389 -20 414 -12 15 -38 31 -58 37 -47 13 -1054 12 -1099 -1z m567 -39 c0 -11
-6 -20 -14 -20 -18 0 -29 16 -21 30 11 18 35 11 35 -10z"/>
<path d="M455 1350 l-28 -29 -1 -366 -1 -365 598 0 598 0 -3 371 -3 371 -28
24 -28 24 -538 0 -537 0 -29 -30z m585 -10 c0 -21 -24 -28 -35 -10 -8 14 3 30
21 30 8 0 14 -9 14 -20z m490 -360 l0 -320 -511 0 -512 0 7 38 c3 20 6 164 6
320 l0 282 505 0 505 0 0 -320z"/>
<path d="M1677 723 c-4 -3 -7 -35 -7 -71 l0 -64 233 4 c282 4 290 6 295 86 l3
52 -259 0 c-142 0 -262 -3 -265 -7z m326 -60 c-13 -2 -33 -2 -45 0 -13 2 -3 4
22 4 25 0 35 -2 23 -4z"/>
<path d="M180 520 c0 -47 176 -60 845 -60 667 0 833 12 843 63 3 16 -42 17
-842 17 -834 0 -846 0 -846 -20z m1498 -7 c-10 -2 -28 -2 -40 0 -13 2 -5 4 17
4 22 1 32 -1 23 -4z"/>
</g>
</svg>
