<?xml version="1.0" standalone="no"?>
<!DOCTYPE svg PUBLIC "-//W3C//DTD SVG 20010904//EN"
 "http://www.w3.org/TR/2001/REC-SVG-20010904/DTD/svg10.dtd">
<svg version="1.0" xmlns="http://www.w3.org/2000/svg"
 width="228.000000pt" height="221.000000pt" viewBox="0 0 228.000000 221.000000"
 preserveAspectRatio="xMidYMid meet">

<g transform="translate(0.000000,221.000000) scale(0.100000,-0.100000)"
fill="#000000" stroke="none">
<path d="M608 2194 c-61 -32 -58 22 -58 -1088 0 -746 3 -1022 12 -1040 6 -14
23 -34 37 -43 24 -16 67 -18 496 -21 259 -2 494 0 524 3 43 5 61 13 83 37 l28
30 0 1032 0 1031 -23 28 c-13 17 -38 32 -62 37 -22 5 -258 9 -525 9 -410 0
-489 -2 -512 -15z m1042 -83 c5 -11 10 -62 10 -114 l0 -94 -212 -6 c-116 -4
-350 -7 -520 -7 l-308 0 0 108 c0 71 4 112 12 120 9 9 136 12 510 12 481 0
498 -1 508 -19z m10 -926 l0 -635 -520 0 -520 0 0 635 0 635 520 0 520 0 0
-635z m0 -898 c0 -171 -1 -185 -20 -202 -19 -17 -46 -18 -507 -12 -451 5 -488
7 -500 23 -10 13 -13 66 -13 196 l0 178 520 0 520 0 0 -183z"/>
<path d="M1034 2036 c-3 -8 -4 -23 -2 -33 3 -16 16 -18 104 -21 112 -3 136 7
114 47 -10 19 -20 21 -111 21 -77 0 -101 -3 -105 -14z"/>
<path d="M1064 356 c-29 -29 -34 -41 -34 -80 0 -36 6 -52 29 -78 26 -29 36
-33 80 -33 41 0 55 5 79 28 79 76 27 197 -84 197 -28 0 -44 -8 -70 -34z m97
-46 c41 -22 8 -91 -35 -74 -26 10 -32 55 -11 71 22 16 21 16 46 3z"/>
<path d="M235 1994 c-88 -25 -170 -52 -183 -60 -12 -8 -30 -30 -39 -49 -19
-41 -21 -36 204 -860 196 -721 179 -667 211 -663 24 3 27 7 25 40 -1 20 -81
331 -177 690 -213 793 -204 755 -185 773 8 7 66 28 129 45 63 17 143 40 178
52 58 18 63 22 60 47 -4 39 -38 36 -223 -15z"/>
<path d="M1824 2014 c-4 -17 -2 -29 7 -34 7 -5 88 -29 179 -55 91 -26 172 -50
180 -55 20 -12 16 -28 -185 -782 -96 -359 -176 -669 -177 -688 -3 -31 0 -35
24 -38 25 -3 28 1 48 65 35 111 276 1001 332 1223 70 279 74 272 -195 345 -92
25 -176 45 -187 45 -13 0 -22 -9 -26 -26z"/>
</g>
</svg>
