<?xml version="1.0" standalone="no"?>
<!DOCTYPE svg PUBLIC "-//W3C//DTD SVG 20010904//EN"
 "http://www.w3.org/TR/2001/REC-SVG-20010904/DTD/svg10.dtd">
<svg version="1.0" xmlns="http://www.w3.org/2000/svg"
 width="225.000000pt" height="225.000000pt" viewBox="0 0 225.000000 225.000000"
 preserveAspectRatio="xMidYMid meet">
<metadata>
Created by potrace 1.16, written by Peter Selinger 2001-2019
</metadata>
<g transform="translate(0.000000,225.000000) scale(0.100000,-0.100000)"
fill="#000000" stroke="none">
<path d="M270 1850 l0 -120 94 0 c91 0 94 -1 111 -27 10 -16 56 -83 102 -151
78 -114 85 -121 106 -111 34 19 112 104 126 138 12 27 10 35 -18 84 -17 30
-31 57 -31 61 0 3 34 6 75 6 l75 0 0 120 0 120 -320 0 -320 0 0 -120z"/>
<path d="M1300 1850 l0 -120 85 0 c47 0 85 -4 85 -8 0 -4 -25 -50 -55 -101
-30 -51 -55 -99 -55 -107 0 -8 19 -28 43 -45 26 -18 44 -40 47 -57 4 -19 13
-28 35 -33 17 -4 37 -9 45 -12 11 -5 49 44 139 178 l124 185 93 0 94 0 0 120
0 120 -340 0 -340 0 0 -120z"/>
<path d="M856 1585 c-9 -9 -16 -21 -16 -26 0 -5 -30 -41 -67 -80 -41 -43 -63
-74 -55 -76 22 -8 12 -21 -25 -34 -45 -14 -101 -49 -126 -77 -22 -25 -24 -20
84 -184 l78 -118 -6 -63 c-9 -106 26 -185 101 -224 45 -24 143 -21 199 6 36
18 49 20 73 11 42 -16 181 -13 244 6 153 45 306 216 326 367 5 38 4 48 -10 53
-9 3 -16 14 -16 25 0 23 -21 69 -31 69 -5 0 -15 -13 -24 -30 -17 -33 -35 -40
-35 -12 0 21 -38 122 -52 140 -6 6 -26 12 -44 12 -32 0 -34 2 -32 32 3 28 -2
35 -30 49 -18 9 -42 32 -55 50 -48 73 -160 98 -273 62 l-52 -16 -49 30 c-65
41 -87 47 -107 28z m97 -57 l49 -31 46 16 c26 9 72 19 102 22 95 10 164 -44
109 -86 -23 -17 -23 -17 37 -24 86 -10 96 -14 92 -38 -3 -20 -8 -21 -109 -18
-88 2 -108 0 -119 -14 -12 -14 -12 -21 1 -43 11 -20 24 -28 52 -30 26 -2 37
-8 37 -19 0 -20 -39 -63 -57 -63 -7 0 -13 -4 -13 -10 0 -19 30 -10 124 40 97
51 146 61 187 40 29 -16 26 -74 -6 -105 -21 -22 -33 -25 -95 -25 -44 0 -82 -6
-100 -15 -16 -9 -66 -63 -111 -120 -89 -115 -150 -169 -212 -186 -72 -19 -140
9 -172 71 -24 46 -18 82 25 153 56 92 50 107 -15 40 -33 -33 -60 -52 -65 -47
-19 20 -140 218 -140 230 0 15 74 61 119 74 l31 9 -6 -38 c-4 -25 0 -50 12
-77 l17 -39 7 55 c4 31 12 64 18 75 21 40 82 88 132 105 l51 17 -27 22 c-15
11 -31 21 -37 21 -5 0 -27 -18 -47 -40 -37 -40 -62 -48 -89 -31 -12 8 -8 17
21 49 20 22 44 52 53 66 22 34 38 33 98 -6z m667 -429 c0 -44 -66 -163 -119
-212 -88 -82 -181 -112 -277 -88 -45 12 -48 11 -75 -15 -35 -33 -47 -27 -19 8
11 14 51 84 88 154 92 171 112 183 304 180 l98 -1 0 -26z"/>
<path d="M1030 675 c-14 -7 -42 -17 -62 -20 -36 -6 -38 -9 -38 -46 l0 -38
-132 -3 -133 -3 -3 -142 -3 -143 476 0 475 0 0 140 0 140 -150 0 -150 0 0 58
0 57 -77 0 c-43 0 -100 3 -128 7 -36 5 -57 3 -75 -7z"/>
</g>
</svg>
